<svg width="20" height="20" viewBox="0 0 20 20" fill="none" xmlns="http://www.w3.org/2000/svg">
<path d="M10 17.5C9.14062 17.5 8.26823 17.3958 7.38281 17.1875C6.04167 18.763 4.73307 19.6875 3.45703 19.9609L3.125 20C3.46354 19.2578 3.65885 18.4473 3.71094 17.5684C3.76302 16.6895 3.67839 15.9505 3.45703 15.3516C2.3763 14.5312 1.52995 13.5482 0.917969 12.4023C0.30599 11.2565 0 10.0391 0 8.75C0 7.5651 0.263672 6.43229 0.791016 5.35156C1.31836 4.27083 2.02799 3.33984 2.91992 2.55859C3.81185 1.77734 4.8763 1.1556 6.11328 0.693359C7.35026 0.23112 8.64583 0 10 0C11.3542 0 12.6497 0.23112 13.8867 0.693359C15.1237 1.1556 16.1882 1.77734 17.0801 2.55859C17.972 3.33984 18.6816 4.27083 19.209 5.35156C19.7363 6.43229 20 7.5651 20 8.75C20 9.9349 19.7363 11.0677 19.209 12.1484C18.6816 13.2292 17.972 14.1602 17.0801 14.9414C16.1882 15.7227 15.1237 16.3444 13.8867 16.8066C12.6497 17.2689 11.3542 17.5 10 17.5ZM12.5 5C11.8099 5 11.2207 5.24414 10.7324 5.73242C10.2441 6.2207 10 6.8099 10 7.5C10 6.8099 9.75586 6.2207 9.26758 5.73242C8.7793 5.24414 8.1901 5 7.5 5C6.8099 5 6.2207 5.24414 5.73242 5.73242C5.24414 6.2207 5 6.8099 5 7.5V7.51953C5 8.20964 5.16927 8.95182 5.50781 9.74609C5.84635 10.5404 6.38672 11.3151 7.12891 12.0703L10 13.75L12.8711 12.0703C13.6393 11.276 14.1862 10.5241 14.5117 9.81445C14.8372 9.10482 15 8.33984 15 7.51953V7.5C15 6.8099 14.7559 6.2207 14.2676 5.73242C13.7793 5.24414 13.1901 5 12.5 5Z" fill="#FF1111"/>
</svg>
