<svg width="45" height="45" viewBox="0 0 45 45" fill="none" xmlns="http://www.w3.org/2000/svg">
<circle cx="22.5" cy="22.5" r="22.5" fill="#FF1111"/>
<path d="M33.6775 17.891C33.6649 16.9463 33.4878 16.0109 33.154 15.1268C32.8646 14.3811 32.4225 13.7038 31.8561 13.1383C31.2896 12.5728 30.6112 12.1315 29.8642 11.8425C28.99 11.5149 28.0665 11.3377 27.1329 11.3186C25.931 11.265 25.5499 11.25 22.4988 11.25C19.4476 11.25 19.0565 11.25 17.8633 11.3186C16.9302 11.3379 16.0071 11.515 15.1333 11.8425C14.3862 12.1313 13.7077 12.5725 13.1412 13.1381C12.5747 13.7036 12.1327 14.381 11.8435 15.1268C11.5147 15.9989 11.3376 16.9207 11.32 17.8523C11.2662 19.0535 11.25 19.434 11.25 22.48C11.25 25.5261 11.25 25.9153 11.32 27.1078C11.3387 28.0408 11.5149 28.9614 11.8435 29.8358C12.1332 30.5814 12.5755 31.2585 13.1422 31.8238C13.7089 32.3891 14.3874 32.8302 15.1345 33.1188C16.0059 33.4596 16.9292 33.6494 17.8646 33.6801C19.0678 33.7338 19.4489 33.75 22.5 33.75C25.5511 33.75 25.9422 33.75 27.1354 33.6801C28.069 33.6618 28.9926 33.4851 29.8667 33.1575C30.6135 32.8682 31.2917 32.4268 31.8581 31.8613C32.4246 31.2958 32.8667 30.6187 33.1565 29.8732C33.4851 29 33.6613 28.0795 33.68 27.1452C33.7338 25.9452 33.75 25.5648 33.75 22.5175C33.7475 19.4714 33.7475 19.0847 33.6775 17.891ZM22.4913 28.2404C19.3002 28.2404 16.7151 25.6596 16.7151 22.4738C16.7151 19.288 19.3002 16.7072 22.4913 16.7072C24.0232 16.7072 25.4924 17.3148 26.5756 18.3962C27.6589 19.4777 28.2674 20.9444 28.2674 22.4738C28.2674 24.0032 27.6589 25.4699 26.5756 26.5514C25.4924 27.6328 24.0232 28.2404 22.4913 28.2404ZM28.4973 17.8386C27.7514 17.8386 27.1504 17.2374 27.1504 16.4939C27.1504 16.3174 27.1853 16.1427 27.2529 15.9796C27.3206 15.8165 27.4197 15.6684 27.5448 15.5436C27.6698 15.4187 27.8182 15.3197 27.9815 15.2522C28.1449 15.1847 28.3199 15.1499 28.4967 15.1499C28.6735 15.1499 28.8486 15.1847 29.0119 15.2522C29.1752 15.3197 29.3237 15.4187 29.4487 15.5436C29.5737 15.6684 29.6729 15.8165 29.7405 15.9796C29.8082 16.1427 29.843 16.3174 29.843 16.4939C29.843 17.2374 29.2408 17.8386 28.4973 17.8386Z" fill="white"/>
<path d="M22.4957 26.2193C24.568 26.2193 26.2478 24.5423 26.2478 22.4735C26.2478 20.4047 24.568 18.7277 22.4957 18.7277C20.4235 18.7277 18.7437 20.4047 18.7437 22.4735C18.7437 24.5423 20.4235 26.2193 22.4957 26.2193Z" fill="white"/>
</svg>
