<svg width="16" height="20" viewBox="0 0 16 20" fill="none" xmlns="http://www.w3.org/2000/svg">
<path fill-rule="evenodd" clip-rule="evenodd" d="M7.6132 0C3.40732 0 0 3.1616 0 7.06333C0 9.0563 7.6132 20 7.6132 20C7.6132 20 15.225 9.16185 15.225 7.06333C15.225 3.1616 11.8177 0 7.6132 0ZM7.65412 10.3669C7.65412 10.3669 3.91806 8.81503 3.91806 5.79543C3.91806 4.75119 4.76742 3.90425 5.81008 3.90425C6.70882 3.90425 7.45518 4.53003 7.6513 5.36693C7.83895 4.53129 8.5839 3.90425 9.47841 3.90425C10.5112 3.90425 11.3493 4.7424 11.3493 5.77658C11.3479 8.85273 7.65412 10.3669 7.65412 10.3669Z" fill="#FF1111"/>
</svg>
