<svg width="45" height="45" viewBox="0 0 45 45" fill="none" xmlns="http://www.w3.org/2000/svg">
<path d="M8.92969 38.3906L7.52344 36.9141L20.9531 23.5547L22.4297 24.9609L8.92969 38.3906Z" fill="#FFCE31"/>
<path d="M2.95317 42.8906C2.95317 42.8906 2.46098 37.0547 7.45317 32.1328L8.92973 36.9844L2.95317 42.8906Z" fill="black" fill-opacity="0.6"/>
<path d="M2.95312 42.8906C2.95312 42.8906 8.78906 43.3828 13.7813 38.3906L8.92969 36.9141L2.95312 42.8906Z" fill="#2F2E41" fill-opacity="0.7"/>
<path d="M38.4609 17.086C34.4531 6.53914 21.4453 11.2501 20.1797 16.5235C18.4922 10.8985 5.83594 6.67977 1.89844 17.086C-2.39063 28.6173 18.6328 39.0235 20.1797 40.711C21.7266 39.3751 42.8203 28.4766 38.4609 17.086Z" fill="#FF0A0A"/>
<path d="M26.0859 21.1641L24.3984 19.5469L36.2109 7.80469L37.8281 9.49219L26.0859 21.1641Z" fill="#FFCE31"/>
<path d="M28.7578 15.2578C28.7578 15.2578 28.4766 8.29688 34.6641 2.10938L36.2109 7.80469L28.7578 15.2578Z" fill="#2F2E41" fill-opacity="0.7"/>
<path d="M30.375 16.875C30.375 16.875 37.3359 17.1563 43.5937 10.9688L37.8281 9.42188L30.375 16.875Z" fill="#2F2E41" fill-opacity="0.7"/>
</svg>
