<svg width="46" height="43" viewBox="0 0 46 43" fill="none" xmlns="http://www.w3.org/2000/svg">
<path d="M11.2255 14.0796C3.96634 14.0796 0 18.5005 0 24.395V37.377H22.451V24.395C22.451 15.6936 16.3892 15.8339 16.3892 15.8339C16.3892 15.8339 15.9402 14.0796 11.2255 14.0796Z" fill="#FFB300"/>
<path d="M22.4536 37.0961V42.1486H44.9046V37.0961C44.9046 33.0261 22.4536 33.0261 22.4536 37.0961Z" fill="#01579B"/>
<path d="M0 37.0961V42.1486H22.451V37.0961C22.451 33.0261 0 33.0261 0 37.0961Z" fill="#C2185B"/>
<path d="M3.29484 29.237C3.29484 29.237 1.64844 28.816 1.64844 26.5003C1.64844 24.6758 2.92066 24.3249 2.92066 24.3249C7.41085 24.3249 14.7448 18.8514 14.7448 18.8514C14.7448 18.8514 17.5138 23.6934 20.2079 24.3249C20.2079 24.3249 21.4801 24.5354 21.4801 26.5003C21.4801 28.816 19.7589 29.237 19.7589 29.237C19.7589 32.7457 14.67 36.2543 11.5269 36.2543C8.5334 36.2543 3.29484 32.7457 3.29484 29.237Z" fill="#FFDD67"/>
<path d="M7.56193 28.4658C8.47122 28.4658 9.20834 27.7746 9.20834 26.922C9.20834 26.0694 8.47122 25.3782 7.56193 25.3782C6.65265 25.3782 5.91553 26.0694 5.91553 26.922C5.91553 27.7746 6.65265 28.4658 7.56193 28.4658Z" fill="#937237"/>
<path d="M15.6381 28.4658C16.5474 28.4658 17.2845 27.7746 17.2845 26.922C17.2845 26.0694 16.5474 25.3782 15.6381 25.3782C14.7288 25.3782 13.9917 26.0694 13.9917 26.922C13.9917 27.7746 14.7288 28.4658 15.6381 28.4658Z" fill="#937237"/>
<path d="M14.2951 31.7627C12.5738 33.0258 10.6281 33.0258 8.90683 31.7627C8.68232 31.6224 8.53265 31.9031 8.68232 32.1136C9.20617 33.0258 10.2539 33.7977 11.6009 33.7977C12.948 33.7977 13.9957 33.0258 14.5196 32.1136C14.6692 31.8329 14.5196 31.5522 14.2951 31.7627Z" fill="#937237"/>
<path d="M22.3728 24.816L23.4954 26.7808H43.1025L43.9257 24.7458C43.9257 17.3075 42.0548 14.2198 33.3738 14.1497C24.5431 14.0093 22.3728 17.3075 22.3728 24.816Z" fill="#FFB300"/>
<path d="M43.1793 24.6756C43.1044 25.0966 43.0296 25.5176 42.8799 25.7281C42.6554 26.1492 42.2064 26.3597 42.2064 26.3597C42.2064 26.3597 42.3561 25.5176 42.2812 24.3949C41.7574 17.5881 41.3832 20.816 33.3757 20.816C25.3681 20.816 24.9191 17.5179 24.4701 24.3247C24.3953 25.5176 24.5449 26.2895 24.5449 26.2895C24.5449 26.2895 24.0959 26.079 23.8714 25.658C23.7217 25.4475 23.6469 25.0264 23.5721 24.6054C22.8237 24.3949 21.8508 24.6054 21.8508 26.6404C21.8508 27.9035 22.3747 28.9561 24.0211 29.0965C24.6198 33.377 30.6815 36.1839 33.4505 36.1839C36.1446 36.1839 42.2812 33.3068 42.8799 29.0965C44.5263 28.9561 45.0502 27.9035 45.0502 26.6404C44.9005 24.6756 43.9276 24.5352 43.1793 24.6756Z" fill="#FFDD67"/>
<path d="M29.1864 28.4658C30.0957 28.4658 30.8328 27.7746 30.8328 26.922C30.8328 26.0694 30.0957 25.3782 29.1864 25.3782C28.2772 25.3782 27.54 26.0694 27.54 26.922C27.54 27.7746 28.2772 28.4658 29.1864 28.4658Z" fill="#937237"/>
<path d="M37.4203 28.4658C38.3296 28.4658 39.0667 27.7746 39.0667 26.922C39.0667 26.0694 38.3296 25.3782 37.4203 25.3782C36.511 25.3782 35.7739 26.0694 35.7739 26.922C35.7739 27.7746 36.511 28.4658 37.4203 28.4658Z" fill="#937237"/>
<path d="M35.9982 31.7627C34.2769 33.0258 32.3312 33.0258 30.61 31.7627C30.3854 31.6224 30.2358 31.9031 30.3854 32.1136C30.9093 33.0258 31.957 33.7977 33.3041 33.7977C34.6511 33.7977 35.6988 33.0258 36.2227 32.1136C36.3724 31.8329 36.2227 31.5522 35.9982 31.7627Z" fill="#937237"/>
<path d="M33.3016 3.62368C30.9068 -2.34102 23.1986 0.325551 22.4503 3.27281C21.4774 0.115032 13.9189 -2.27085 11.599 3.55351C8.97969 10.0796 21.5522 15.9039 22.4503 16.8864C23.3483 16.1145 35.9209 10.0094 33.3016 3.62368Z" fill="#FF0A0A"/>
</svg>
